<?xml version="1.0" standalone="no"?>
<!DOCTYPE svg PUBLIC "-//W3C//DTD SVG 20010904//EN"
 "http://www.w3.org/TR/2001/REC-SVG-20010904/DTD/svg10.dtd">
<svg version="1.0" xmlns="http://www.w3.org/2000/svg"
 width="2435.000000pt" height="413.000000pt" viewBox="0 0 2435.000000 413.000000"
 preserveAspectRatio="xMidYMid meet">

<g transform="translate(0.000000,413.000000) scale(0.100000,-0.100000)"
fill="#000000" stroke="none">
<path d="M3620 4124 c-374 -22 -756 -65 -1425 -160 -902 -127 -1341 -196
-1358 -213 -5 -5 -7 -17 -5 -27 3 -15 20 -21 96 -31 254 -34 511 -142 691
-291 225 -187 427 -522 510 -850 51 -197 87 -561 76 -757 -19 -343 -70 -555
-192 -800 -132 -264 -271 -410 -444 -465 -70 -23 -87 -43 -56 -69 16 -12 198
27 767 168 201 49 475 115 610 146 596 138 1049 258 1365 361 227 75 340 124
428 188 153 109 293 306 377 529 87 231 111 415 92 693 -14 195 -44 414 -73
529 -69 270 -208 538 -367 707 -132 140 -358 260 -597 319 -81 20 -342 32
-495 23z m1025 -574 c26 -28 32 -117 11 -157 -27 -53 -68 -69 -246 -98 -207
-33 -240 -42 -267 -68 -33 -30 -30 -89 11 -227 18 -63 36 -132 40 -152 5 -27
12 -38 24 -38 9 0 114 18 232 40 252 46 245 48 260 -61 23 -154 30 -148 -251
-200 l-226 -42 -12 -146 c-16 -208 -95 -589 -130 -632 -12 -15 -46 -28 -121
-45 -125 -27 -159 -29 -166 -9 -4 8 8 91 25 183 56 302 62 355 68 537 6 207
-5 296 -63 539 -86 354 -32 480 231 539 112 25 349 52 491 55 60 2 74 -1 89
-18z m-1198 -222 c24 -11 53 -32 67 -48 34 -41 91 -181 77 -190 -7 -3 -109
-24 -229 -44 -119 -21 -227 -40 -238 -43 l-21 -5 24 -71 c107 -316 127 -597
68 -945 -20 -116 -85 -413 -95 -432 -12 -22 -182 -62 -214 -50 -34 12 -56 48
-56 90 0 19 16 148 37 285 32 218 36 275 37 445 0 144 -4 219 -16 286 -18 92
-84 323 -96 336 -4 3 -93 -9 -199 -27 -208 -37 -231 -36 -292 9 -42 31 -54 49
-103 148 -28 58 -36 83 -27 88 6 5 145 29 308 55 163 27 424 69 581 95 157 27
299 46 315 43 17 -3 49 -14 72 -25z"/>
<path d="M11580 4115 c-8 -2 -49 -9 -90 -15 -41 -7 -120 -27 -176 -45 -482
-157 -833 -565 -936 -1090 -28 -143 -30 -387 -5 -517 105 -527 485 -876 1013
-928 179 -18 398 7 570 65 183 62 400 201 541 347 l42 43 -101 115 c-55 63
-116 132 -135 153 l-34 38 -77 -64 c-152 -125 -265 -190 -409 -233 -74 -22
-109 -27 -218 -28 -154 -1 -206 10 -332 70 -217 104 -369 340 -391 608 -39
491 235 916 663 1026 109 28 280 29 386 1 133 -34 267 -112 389 -227 l68 -64
133 142 c73 79 147 158 164 176 l30 34 -75 70 c-171 160 -336 250 -550 300
-64 14 -132 20 -270 23 -102 2 -192 2 -200 0z"/>
<path d="M16575 4104 c-135 -22 -254 -62 -390 -129 -385 -189 -656 -539 -756
-974 -26 -112 -37 -385 -20 -501 56 -382 286 -705 616 -865 170 -82 338 -118
550 -118 703 0 1291 526 1386 1240 7 54 9 148 6 243 -6 170 -28 279 -86 424
-149 372 -482 627 -896 686 -97 13 -314 11 -410 -6z m287 -429 c91 -8 209 -51
289 -104 261 -171 383 -490 323 -842 -68 -396 -354 -700 -719 -764 -110 -19
-182 -19 -282 0 -245 47 -436 203 -529 433 -61 151 -80 341 -50 508 63 361
314 657 638 749 59 17 204 34 248 29 14 -2 51 -6 82 -9z"/>
<path d="M6074 3993 c-15 -169 -12 -204 21 -258 20 -32 45 -56 74 -72 43 -23
49 -23 343 -23 278 0 298 -1 298 -18 0 -9 -34 -413 -76 -897 -41 -484 -76
-909 -76 -945 -2 -94 36 -161 114 -201 32 -16 59 -19 183 -19 131 0 145 2 146
18 0 9 39 476 87 1037 l88 1020 384 5 385 5 9 128 c7 94 6 138 -3 168 -15 51
-79 115 -128 128 -25 7 -336 11 -940 11 l-901 0 -8 -87z"/>
<path d="M8376 4068 c-2 -7 -48 -535 -102 -1174 l-98 -1160 28 -58 c19 -39 41
-65 69 -84 l41 -27 847 -3 847 -2 8 87 c16 189 1 248 -78 300 l-42 28 -618 3
c-599 2 -618 3 -618 21 0 46 51 604 56 612 3 5 209 9 458 9 l453 0 6 68 c11
109 8 200 -7 235 -17 39 -71 92 -109 106 -18 7 -162 11 -398 11 -363 0 -369 0
-369 20 0 24 37 464 46 538 l5 52 684 0 683 0 8 78 c14 142 10 194 -17 242
-13 24 -44 58 -67 75 l-44 30 -834 3 c-669 2 -835 0 -838 -10z"/>
<path d="M13000 4058 c0 -12 -43 -533 -96 -1155 -108 -1264 -106 -1188 -35
-1267 58 -64 96 -76 243 -76 124 0 128 1 132 23 3 12 34 380 71 817 36 437 69
815 73 840 l7 45 528 -790 c332 -497 545 -806 573 -832 24 -23 70 -54 102 -70
54 -27 64 -28 197 -28 l140 0 97 1135 c54 624 96 1152 93 1173 -12 86 -88 176
-164 197 -22 6 -91 9 -153 8 l-113 -3 -72 -835 c-39 -459 -72 -837 -72 -839
-1 -3 -231 339 -512 760 -281 420 -531 785 -556 811 -26 26 -72 59 -107 75
-57 26 -71 28 -218 31 l-158 4 0 -24z"/>
<path d="M1145 3199 c-8 -13 -13 -9 61 -48 289 -152 535 -520 626 -935 19 -87
22 -132 23 -319 0 -140 4 -216 10 -214 24 8 47 171 48 347 1 230 -26 377 -108
576 -120 292 -344 516 -584 588 -65 19 -68 19 -76 5z"/>
<path d="M91 2893 c-65 -218 -86 -365 -85 -603 0 -206 17 -345 63 -536 115
-467 352 -848 681 -1088 71 -52 278 -159 292 -150 18 11 5 24 -89 87 -428 287
-739 778 -852 1342 -59 298 -55 640 13 906 13 52 22 97 19 102 -11 19 -24 1
-42 -60z"/>
<path d="M1034 2619 c-29 -4 -57 -10 -63 -13 -27 -17 -5 -26 62 -26 62 0 83
-5 135 -31 155 -77 254 -268 253 -488 0 -378 -288 -577 -533 -370 -85 71 -94
44 -13 -37 223 -223 530 -113 615 222 69 271 -45 594 -250 703 -69 37 -133 49
-206 40z"/>
<path d="M980 2465 c-139 -44 -226 -249 -187 -439 47 -227 195 -353 358 -304
107 32 199 190 199 343 0 114 -52 249 -123 323 -75 78 -161 104 -247 77z"/>
<path d="M290 1916 c0 -27 29 -141 58 -226 92 -270 263 -492 473 -613 99 -57
309 -108 309 -75 0 9 -32 27 -84 47 -101 38 -235 124 -330 212 -162 149 -323
410 -387 627 -11 39 -39 59 -39 28z"/>
<path d="M4355 1053 c-311 -106 -540 -167 -1565 -418 -569 -139 -1028 -256
-1020 -259 14 -5 1541 -341 1600 -352 14 -2 -207 74 -490 170 -283 96 -510
175 -505 175 6 0 336 -69 734 -154 399 -85 726 -154 727 -152 1 1 -251 90
-562 196 -310 107 -562 196 -560 198 2 2 335 -73 741 -167 405 -94 739 -170
741 -168 1 2 -246 88 -549 192 -484 165 -638 221 -562 202 87 -21 1058 -226
1061 -223 2 2 -151 68 -339 147 -300 126 -410 176 -342 156 51 -14 1058 -246
1061 -243 2 1 -168 72 -377 156 -208 85 -377 156 -375 158 2 2 181 -28 397
-66 217 -39 408 -73 424 -76 29 -5 -81 40 -393 162 -79 30 -142 57 -140 58 2
2 212 -30 468 -71 256 -40 471 -73 477 -71 7 1 -134 54 -315 117 -180 63 -320
116 -312 117 8 2 245 -26 525 -61 281 -35 511 -63 512 -62 1 1 -169 51 -377
111 -209 61 -374 111 -367 113 8 1 289 -31 627 -73 337 -41 614 -74 616 -73 2
3 -1354 309 -1386 313 -8 1 -87 -22 -175 -52z"/>
</g>
</svg>
